<svg width="35" height="35" viewBox="0 0 32 32" fill="none" xmlns="http://www.w3.org/2000/svg">
<g clip-path="url(#clip0_1_2437)">
<path d="M16.0268 3.88C11.6135 3.88 8.02678 7.46667 8.02678 11.88V15.7333C8.02678 16.5467 7.68012 17.7867 7.26678 18.48L5.73345 21.0267C4.78678 22.6 5.44012 24.3467 7.17345 24.9333C12.9201 26.8533 19.1201 26.8533 24.8668 24.9333C26.4801 24.4 27.1868 22.4933 26.3068 21.0267L24.7734 18.48C24.3734 17.7867 24.0268 16.5467 24.0268 15.7333V11.88C24.0268 7.48001 20.4268 3.88 16.0268 3.88Z" stroke="currentColor" stroke-width="1.5" stroke-miterlimit="10" stroke-linecap="round"/>
<path d="M18.4934 4.26667C18.0801 4.14667 17.6534 4.05334 17.2134 4C15.9334 3.84 14.7067 3.93334 13.5601 4.26667C13.9467 3.28 14.9067 2.58667 16.0267 2.58667C17.1467 2.58667 18.1067 3.28 18.4934 4.26667Z" stroke="currentColor" stroke-width="1.5" stroke-miterlimit="10" stroke-linecap="round" stroke-linejoin="round"/>
<path d="M20.0269 25.4133C20.0269 27.6133 18.2269 29.4133 16.0269 29.4133C14.9335 29.4133 13.9202 28.96 13.2002 28.24C12.4802 27.52 12.0269 26.5067 12.0269 25.4133" stroke="currentColor" stroke-width="1.5" stroke-miterlimit="10"/>
</g>
<defs>
<clipPath id="clip0_1_2437">
<rect width="32" height="32" fill="white"/>
</clipPath>
</defs>
</svg>
