<svg width="35" height="35" viewBox="0 0 32 32" fill="none" xmlns="http://www.w3.org/2000/svg">
<path fill-rule="evenodd" clip-rule="evenodd" d="M21.6693 9.2074C21.822 9.32633 21.9368 9.48699 22 9.6699C22.0486 9.85278 22.0444 10.0457 21.9877 10.2262C21.9311 10.4068 21.8244 10.5676 21.68 10.6899L17.55 14.6899L18.55 20.3699C18.5857 20.5574 18.567 20.7512 18.4961 20.9284C18.4252 21.1055 18.3051 21.2588 18.15 21.3699C17.9784 21.4941 17.7718 21.5607 17.56 21.5599C17.3988 21.5604 17.2403 21.5191 17.1 21.4399L12 18.7599L6.87998 21.4299C6.71575 21.517 6.5305 21.5566 6.34503 21.5442C6.15955 21.5318 5.9812 21.468 5.82998 21.3599C5.67483 21.2488 5.55473 21.0955 5.48385 20.9184C5.41297 20.7412 5.39428 20.5474 5.42998 20.3599L6.42998 14.6799L2.29998 10.6799C2.17144 10.5516 2.08025 10.3908 2.03621 10.2146C1.99216 10.0384 1.99692 9.85358 2.04998 9.6799C2.10794 9.50218 2.21455 9.34425 2.35773 9.22406C2.5009 9.10386 2.6749 9.02621 2.85998 8.9999L8.54998 8.1599L11.1 2.9999C11.1819 2.83083 11.3097 2.68824 11.4689 2.58847C11.6281 2.48871 11.8121 2.43579 12 2.43579C12.1878 2.43579 12.3719 2.48871 12.5311 2.58847C12.6902 2.68824 12.8181 2.83083 12.9 2.9999L15.45 8.1699L21.14 8.9999C21.3328 9.0164 21.5167 9.08848 21.6693 9.2074Z" fill="currentColor"/>
</svg>
